<?xml version="1.0" encoding="UTF-8"?>
<svg xmlns="http://www.w3.org/2000/svg" version="1.1" width="200" height="200" viewBox="0 0 200 200"><rect x="0" y="0" width="200" height="200" fill="#ffffff"/><g transform="scale(6.897)"><g transform="translate(0,0)"><path fill-rule="evenodd" d="M8 0L8 1L9 1L9 2L8 2L8 5L9 5L9 4L11 4L11 5L10 5L10 10L9 10L9 8L8 8L8 9L7 9L7 8L6 8L6 9L7 9L7 10L5 10L5 9L4 9L4 8L0 8L0 9L2 9L2 11L4 11L4 12L1 12L1 11L0 11L0 12L1 12L1 13L2 13L2 14L0 14L0 15L1 15L1 16L0 16L0 17L1 17L1 16L3 16L3 14L6 14L6 15L7 15L7 16L6 16L6 17L7 17L7 16L8 16L8 14L10 14L10 15L9 15L9 16L12 16L12 17L13 17L13 16L12 16L12 14L13 14L13 15L14 15L14 18L13 18L13 21L15 21L15 19L16 19L16 17L17 17L17 16L16 16L16 17L15 17L15 15L14 15L14 14L18 14L18 16L19 16L19 15L20 15L20 12L19 12L19 11L18 11L18 10L20 10L20 11L21 11L21 9L22 9L22 8L21 8L21 9L20 9L20 8L19 8L19 6L20 6L20 7L21 7L21 4L19 4L19 5L17 5L17 4L18 4L18 3L17 3L17 4L15 4L15 3L16 3L16 2L15 2L15 3L14 3L14 0L12 0L12 1L11 1L11 0L10 0L10 1L9 1L9 0ZM16 0L16 1L17 1L17 2L19 2L19 3L20 3L20 2L21 2L21 0L18 0L18 1L17 1L17 0ZM19 1L19 2L20 2L20 1ZM11 2L11 4L12 4L12 3L13 3L13 2ZM13 4L13 5L12 5L12 6L11 6L11 8L12 8L12 6L13 6L13 8L14 8L14 11L11 11L11 13L10 13L10 14L11 14L11 13L12 13L12 12L13 12L13 14L14 14L14 12L15 12L15 11L16 11L16 8L17 8L17 7L18 7L18 6L17 6L17 5L15 5L15 7L14 7L14 6L13 6L13 5L14 5L14 4ZM8 6L8 7L9 7L9 6ZM16 6L16 7L17 7L17 6ZM24 8L24 9L23 9L23 10L25 10L25 11L26 11L26 10L25 10L25 9L27 9L27 8ZM28 8L28 10L27 10L27 11L28 11L28 12L23 12L23 13L22 13L22 12L21 12L21 13L22 13L22 15L21 15L21 16L20 16L20 17L22 17L22 18L20 18L20 19L21 19L21 20L18 20L18 19L19 19L19 18L18 18L18 19L17 19L17 20L16 20L16 21L18 21L18 22L16 22L16 23L18 23L18 24L17 24L17 25L16 25L16 24L15 24L15 22L14 22L14 23L10 23L10 22L11 22L11 20L12 20L12 19L11 19L11 18L10 18L10 17L8 17L8 18L3 18L3 17L2 17L2 18L3 18L3 19L4 19L4 21L8 21L8 22L9 22L9 23L10 23L10 24L9 24L9 25L8 25L8 29L12 29L12 28L14 28L14 27L15 27L15 26L16 26L16 27L17 27L17 26L18 26L18 29L23 29L23 28L25 28L25 29L26 29L26 26L27 26L27 24L26 24L26 22L25 22L25 20L26 20L26 21L27 21L27 23L28 23L28 21L27 21L27 19L26 19L26 18L27 18L27 17L28 17L28 16L27 16L27 17L25 17L25 16L26 16L26 15L24 15L24 16L23 16L23 17L22 17L22 15L23 15L23 13L25 13L25 14L27 14L27 13L28 13L28 15L29 15L29 13L28 13L28 12L29 12L29 11L28 11L28 10L29 10L29 8ZM11 9L11 10L12 10L12 9ZM4 10L4 11L5 11L5 13L6 13L6 14L7 14L7 13L6 13L6 12L8 12L8 13L9 13L9 11L5 11L5 10ZM17 11L17 12L16 12L16 13L17 13L17 12L18 12L18 13L19 13L19 12L18 12L18 11ZM4 16L4 17L5 17L5 16ZM23 17L23 18L22 18L22 19L23 19L23 20L24 20L24 19L25 19L25 17ZM0 18L0 19L1 19L1 18ZM9 18L9 19L8 19L8 20L9 20L9 19L10 19L10 20L11 20L11 19L10 19L10 18ZM6 19L6 20L7 20L7 19ZM28 19L28 20L29 20L29 19ZM1 20L1 21L2 21L2 20ZM19 21L19 22L20 22L20 21ZM21 21L21 24L24 24L24 21ZM22 22L22 23L23 23L23 22ZM19 23L19 24L18 24L18 25L19 25L19 28L20 28L20 27L21 27L21 28L22 28L22 27L23 27L23 25L22 25L22 26L20 26L20 23ZM12 24L12 26L11 26L11 25L9 25L9 26L10 26L10 27L9 27L9 28L10 28L10 27L11 27L11 28L12 28L12 26L13 26L13 27L14 27L14 26L15 26L15 24ZM25 24L25 26L24 26L24 27L25 27L25 26L26 26L26 24ZM13 25L13 26L14 26L14 25ZM28 25L28 27L27 27L27 29L28 29L28 27L29 27L29 25ZM16 28L16 29L17 29L17 28ZM0 0L0 7L7 7L7 0ZM1 1L1 6L6 6L6 1ZM2 2L2 5L5 5L5 2ZM22 0L22 7L29 7L29 0ZM23 1L23 6L28 6L28 1ZM24 2L24 5L27 5L27 2ZM0 22L0 29L7 29L7 22ZM1 23L1 28L6 28L6 23ZM2 24L2 27L5 27L5 24Z" fill="#000000"/></g></g></svg>
